<svg width="24" height="25" viewBox="0 0 24 25" fill="none" xmlns="http://www.w3.org/2000/svg">
<rect x="9" y="2" width="2" height="2" fill="#FF6700"/>
<rect x="13" y="2" width="2" height="2" fill="#FF6700"/>
<rect x="11" y="8" width="2" height="2" fill="#FF6700"/>
<rect x="11" y="10" width="2" height="2" fill="#FF6700"/>
<rect x="11" y="12" width="2" height="2" fill="#FF6700"/>
<rect x="11" y="14" width="2" height="2" fill="#FF6700"/>
<rect x="11" y="18" width="2" height="2" fill="#FF6700"/>
<rect x="8" y="4" width="2" height="2" fill="#FF6700"/>
<rect x="7" y="6" width="2" height="2" fill="#FF6700"/>
<rect x="6" y="8" width="2" height="2" fill="#FF6700"/>
<rect x="5" y="10" width="2" height="2" fill="#FF6700"/>
<rect x="4" y="12" width="2" height="2" fill="#FF6700"/>
<rect x="3" y="14" width="2" height="2" fill="#FF6700"/>
<rect x="2" y="16" width="2" height="2" fill="#FF6700"/>
<rect y="20" width="2" height="2" fill="#FF6700"/>
<rect x="1" y="22" width="2" height="2" fill="#FF6700"/>
<rect x="3" y="22" width="2" height="2" fill="#FF6700"/>
<rect x="5" y="22" width="2" height="2" fill="#FF6700"/>
<rect x="7" y="22" width="2" height="2" fill="#FF6700"/>
<rect x="9" y="22" width="2" height="2" fill="#FF6700"/>
<rect x="11" y="22" width="2" height="2" fill="#FF6700"/>
<rect x="13" y="22" width="2" height="2" fill="#FF6700"/>
<rect x="15" y="22" width="2" height="2" fill="#FF6700"/>
<rect x="17" y="22" width="2" height="2" fill="#FF6700"/>
<rect x="19" y="22" width="2" height="2" fill="#FF6700"/>
<rect x="21" y="22" width="2" height="2" fill="#FF6700"/>
<rect x="22" y="20" width="2" height="2" fill="#FF6700"/>
<rect x="21" y="18" width="2" height="2" fill="#FF6700"/>
<rect x="20" y="16" width="2" height="2" fill="#FF6700"/>
<rect x="19" y="14" width="2" height="2" fill="#FF6700"/>
<rect x="18" y="12" width="2" height="2" fill="#FF6700"/>
<rect x="17" y="10" width="2" height="2" fill="#FF6700"/>
<rect x="15" y="6" width="2" height="2" fill="#FF6700"/>
<rect x="16" y="8" width="2" height="2" fill="#FF6700"/>
<rect x="14" y="4" width="2" height="2" fill="#FF6700"/>
<rect x="1" y="18" width="2" height="2" fill="#FF6700"/>
<rect x="11" width="2" height="2" fill="#FF6700"/>
</svg>
