<svg width="351" height="171" viewBox="0 0 351 171" fill="none" xmlns="http://www.w3.org/2000/svg">
<rect y="162" width="9" height="9" fill="#303030"/>
<rect x="9" y="153" width="9" height="9" fill="#303030"/>
<rect x="18" y="144" width="9" height="9" fill="#303030"/>
<rect x="27" y="135" width="9" height="9" fill="#303030"/>
<rect x="36" y="126" width="9" height="9" fill="#303030"/>
<rect x="45" y="117" width="9" height="9" fill="#303030"/>
<rect x="54" y="108" width="9" height="9" fill="#303030"/>
<rect x="63" y="99" width="9" height="9" fill="#303030"/>
<rect x="72" y="90" width="9" height="9" fill="#303030"/>
<rect x="81" y="81" width="9" height="9" fill="#303030"/>
<rect x="90" y="72" width="9" height="9" fill="#303030"/>
<rect x="99" y="63" width="9" height="9" fill="#303030"/>
<rect x="108" y="54" width="9" height="9" fill="#303030"/>
<rect x="117" y="45" width="9" height="9" fill="#303030"/>
<rect x="126" y="36" width="9" height="9" fill="#303030"/>
<rect x="135" y="27" width="9" height="9" fill="#303030"/>
<rect x="144" y="18" width="9" height="9" fill="#303030"/>
<rect x="153" y="9" width="9" height="9" fill="#303030"/>
<rect x="162" width="9" height="9" fill="#303030"/>
<rect y="144" width="9" height="9" fill="#303030"/>
<rect x="9" y="135" width="9" height="9" fill="#303030"/>
<rect x="18" y="126" width="9" height="9" fill="#303030"/>
<rect x="27" y="117" width="9" height="9" fill="#303030"/>
<rect x="36" y="108" width="9" height="9" fill="#303030"/>
<rect x="45" y="99" width="9" height="9" fill="#303030"/>
<rect x="54" y="90" width="9" height="9" fill="#303030"/>
<rect x="63" y="81" width="9" height="9" fill="#303030"/>
<rect x="72" y="72" width="9" height="9" fill="#303030"/>
<rect x="81" y="63" width="9" height="9" fill="#303030"/>
<rect x="90" y="54" width="9" height="9" fill="#303030"/>
<rect x="99" y="45" width="9" height="9" fill="#303030"/>
<rect x="108" y="36" width="9" height="9" fill="#303030"/>
<rect x="117" y="27" width="9" height="9" fill="#303030"/>
<rect x="126" y="18" width="9" height="9" fill="#303030"/>
<rect x="135" y="9" width="9" height="9" fill="#303030"/>
<rect x="144" width="9" height="9" fill="#303030"/>
<rect y="126" width="9" height="9" fill="#303030"/>
<rect x="9" y="117" width="9" height="9" fill="#303030"/>
<rect x="18" y="108" width="9" height="9" fill="#303030"/>
<rect x="27" y="99" width="9" height="9" fill="#303030"/>
<rect x="36" y="90" width="9" height="9" fill="#303030"/>
<rect x="45" y="81" width="9" height="9" fill="#303030"/>
<rect x="54" y="72" width="9" height="9" fill="#303030"/>
<rect x="63" y="63" width="9" height="9" fill="#303030"/>
<rect x="72" y="54" width="9" height="9" fill="#303030"/>
<rect x="81" y="45" width="9" height="9" fill="#303030"/>
<rect x="90" y="36" width="9" height="9" fill="#303030"/>
<rect x="99" y="27" width="9" height="9" fill="#303030"/>
<rect x="108" y="18" width="9" height="9" fill="#303030"/>
<rect x="117" y="9" width="9" height="9" fill="#303030"/>
<rect x="126" width="9" height="9" fill="#303030"/>
<rect y="108" width="9" height="9" fill="#303030"/>
<rect x="9" y="99" width="9" height="9" fill="#303030"/>
<rect x="18" y="90" width="9" height="9" fill="#303030"/>
<rect x="27" y="81" width="9" height="9" fill="#303030"/>
<rect x="36" y="72" width="9" height="9" fill="#303030"/>
<rect x="45" y="63" width="9" height="9" fill="#303030"/>
<rect x="54" y="54" width="9" height="9" fill="#303030"/>
<rect x="63" y="45" width="9" height="9" fill="#303030"/>
<rect x="72" y="36" width="9" height="9" fill="#303030"/>
<rect x="81" y="27" width="9" height="9" fill="#303030"/>
<rect x="90" y="18" width="9" height="9" fill="#303030"/>
<rect x="99" y="9" width="9" height="9" fill="#303030"/>
<rect x="108" width="9" height="9" fill="#303030"/>
<rect y="90" width="9" height="9" fill="#303030"/>
<rect x="9" y="81" width="9" height="9" fill="#303030"/>
<rect x="18" y="72" width="9" height="9" fill="#303030"/>
<rect x="27" y="63" width="9" height="9" fill="#303030"/>
<rect x="36" y="54" width="9" height="9" fill="#303030"/>
<rect x="45" y="45" width="9" height="9" fill="#303030"/>
<rect x="54" y="36" width="9" height="9" fill="#303030"/>
<rect x="63" y="27" width="9" height="9" fill="#303030"/>
<rect x="72" y="18" width="9" height="9" fill="#303030"/>
<rect x="81" y="9" width="9" height="9" fill="#303030"/>
<rect x="90" width="9" height="9" fill="#303030"/>
<rect y="72" width="9" height="9" fill="#303030"/>
<rect x="9" y="63" width="9" height="9" fill="#303030"/>
<rect x="18" y="54" width="9" height="9" fill="#303030"/>
<rect x="27" y="45" width="9" height="9" fill="#303030"/>
<rect x="36" y="36" width="9" height="9" fill="#303030"/>
<rect x="45" y="27" width="9" height="9" fill="#303030"/>
<rect x="54" y="18" width="9" height="9" fill="#303030"/>
<rect x="63" y="9" width="9" height="9" fill="#303030"/>
<rect x="72" width="9" height="9" fill="#303030"/>
<rect y="54" width="9" height="9" fill="#303030"/>
<rect x="9" y="45" width="9" height="9" fill="#303030"/>
<rect x="18" y="36" width="9" height="9" fill="#303030"/>
<rect x="27" y="27" width="9" height="9" fill="#303030"/>
<rect x="36" y="18" width="9" height="9" fill="#303030"/>
<rect x="45" y="9" width="9" height="9" fill="#303030"/>
<rect x="54" width="9" height="9" fill="#303030"/>
<rect y="36" width="9" height="9" fill="#303030"/>
<rect x="9" y="27" width="9" height="9" fill="#303030"/>
<rect x="18" y="18" width="9" height="9" fill="#303030"/>
<rect x="27" y="9" width="9" height="9" fill="#303030"/>
<rect x="36" width="9" height="9" fill="#303030"/>
<rect y="18" width="9" height="9" fill="#303030"/>
<rect x="9" y="9" width="9" height="9" fill="#303030"/>
<rect x="18" width="9" height="9" fill="#303030"/>
<rect width="9" height="9" fill="#303030"/>
<rect x="18" y="162" width="9" height="9" fill="#303030"/>
<rect x="27" y="153" width="9" height="9" fill="#303030"/>
<rect x="36" y="144" width="9" height="9" fill="#303030"/>
<rect x="45" y="135" width="9" height="9" fill="#303030"/>
<rect x="54" y="126" width="9" height="9" fill="#303030"/>
<rect x="63" y="117" width="9" height="9" fill="#303030"/>
<rect x="72" y="108" width="9" height="9" fill="#303030"/>
<rect x="81" y="99" width="9" height="9" fill="#303030"/>
<rect x="90" y="90" width="9" height="9" fill="#303030"/>
<rect x="99" y="81" width="9" height="9" fill="#303030"/>
<rect x="108" y="72" width="9" height="9" fill="#303030"/>
<rect x="117" y="63" width="9" height="9" fill="#303030"/>
<rect x="126" y="54" width="9" height="9" fill="#303030"/>
<rect x="135" y="45" width="9" height="9" fill="#303030"/>
<rect x="144" y="36" width="9" height="9" fill="#303030"/>
<rect x="153" y="27" width="9" height="9" fill="#303030"/>
<rect x="162" y="18" width="9" height="9" fill="#303030"/>
<rect x="171" y="9" width="9" height="9" fill="#303030"/>
<rect x="180" width="9" height="9" fill="#303030"/>
<rect x="36" y="162" width="9" height="9" fill="#303030"/>
<rect x="45" y="153" width="9" height="9" fill="#303030"/>
<rect x="54" y="144" width="9" height="9" fill="#303030"/>
<rect x="63" y="135" width="9" height="9" fill="#303030"/>
<rect x="72" y="126" width="9" height="9" fill="#303030"/>
<rect x="81" y="117" width="9" height="9" fill="#303030"/>
<rect x="90" y="108" width="9" height="9" fill="#303030"/>
<rect x="99" y="99" width="9" height="9" fill="#303030"/>
<rect x="108" y="90" width="9" height="9" fill="#303030"/>
<rect x="117" y="81" width="9" height="9" fill="#303030"/>
<rect x="126" y="72" width="9" height="9" fill="#303030"/>
<rect x="135" y="63" width="9" height="9" fill="#303030"/>
<rect x="144" y="54" width="9" height="9" fill="#303030"/>
<rect x="153" y="45" width="9" height="9" fill="#303030"/>
<rect x="162" y="36" width="9" height="9" fill="#303030"/>
<rect x="171" y="27" width="9" height="9" fill="#303030"/>
<rect x="180" y="18" width="9" height="9" fill="#303030"/>
<rect x="189" y="9" width="9" height="9" fill="#303030"/>
<rect x="198" width="9" height="9" fill="#303030"/>
<rect x="54" y="162" width="9" height="9" fill="#303030"/>
<rect x="63" y="153" width="9" height="9" fill="#303030"/>
<rect x="72" y="144" width="9" height="9" fill="#303030"/>
<rect x="81" y="135" width="9" height="9" fill="#303030"/>
<rect x="90" y="126" width="9" height="9" fill="#303030"/>
<rect x="99" y="117" width="9" height="9" fill="#303030"/>
<rect x="108" y="108" width="9" height="9" fill="#303030"/>
<rect x="117" y="99" width="9" height="9" fill="#303030"/>
<rect x="126" y="90" width="9" height="9" fill="#303030"/>
<rect x="135" y="81" width="9" height="9" fill="#303030"/>
<rect x="144" y="72" width="9" height="9" fill="#303030"/>
<rect x="153" y="63" width="9" height="9" fill="#303030"/>
<rect x="162" y="54" width="9" height="9" fill="#303030"/>
<rect x="171" y="45" width="9" height="9" fill="#303030"/>
<rect x="180" y="36" width="9" height="9" fill="#303030"/>
<rect x="189" y="27" width="9" height="9" fill="#303030"/>
<rect x="198" y="18" width="9" height="9" fill="#303030"/>
<rect x="207" y="9" width="9" height="9" fill="#303030"/>
<rect x="216" width="9" height="9" fill="#303030"/>
<rect x="72" y="162" width="9" height="9" fill="#303030"/>
<rect x="81" y="153" width="9" height="9" fill="#303030"/>
<rect x="90" y="144" width="9" height="9" fill="#303030"/>
<rect x="99" y="135" width="9" height="9" fill="#303030"/>
<rect x="108" y="126" width="9" height="9" fill="#303030"/>
<rect x="117" y="117" width="9" height="9" fill="#303030"/>
<rect x="126" y="108" width="9" height="9" fill="#303030"/>
<rect x="135" y="99" width="9" height="9" fill="#303030"/>
<rect x="144" y="90" width="9" height="9" fill="#303030"/>
<rect x="153" y="81" width="9" height="9" fill="#303030"/>
<rect x="162" y="72" width="9" height="9" fill="#303030"/>
<rect x="171" y="63" width="9" height="9" fill="#303030"/>
<rect x="180" y="54" width="9" height="9" fill="#303030"/>
<rect x="189" y="45" width="9" height="9" fill="#303030"/>
<rect x="198" y="36" width="9" height="9" fill="#303030"/>
<rect x="207" y="27" width="9" height="9" fill="#303030"/>
<rect x="216" y="18" width="9" height="9" fill="#303030"/>
<rect x="225" y="9" width="9" height="9" fill="#303030"/>
<rect x="234" width="9" height="9" fill="#303030"/>
<rect x="90" y="162" width="9" height="9" fill="#303030"/>
<rect x="99" y="153" width="9" height="9" fill="#303030"/>
<rect x="108" y="144" width="9" height="9" fill="#303030"/>
<rect x="117" y="135" width="9" height="9" fill="#303030"/>
<rect x="126" y="126" width="9" height="9" fill="#303030"/>
<rect x="135" y="117" width="9" height="9" fill="#303030"/>
<rect x="144" y="108" width="9" height="9" fill="#303030"/>
<rect x="153" y="99" width="9" height="9" fill="#303030"/>
<rect x="162" y="90" width="9" height="9" fill="#303030"/>
<rect x="171" y="81" width="9" height="9" fill="#303030"/>
<rect x="180" y="72" width="9" height="9" fill="#303030"/>
<rect x="189" y="63" width="9" height="9" fill="#303030"/>
<rect x="198" y="54" width="9" height="9" fill="#303030"/>
<rect x="207" y="45" width="9" height="9" fill="#303030"/>
<rect x="216" y="36" width="9" height="9" fill="#303030"/>
<rect x="225" y="27" width="9" height="9" fill="#303030"/>
<rect x="234" y="18" width="9" height="9" fill="#303030"/>
<rect x="243" y="9" width="9" height="9" fill="#303030"/>
<rect x="252" width="9" height="9" fill="#303030"/>
<rect x="108" y="162" width="9" height="9" fill="#303030"/>
<rect x="117" y="153" width="9" height="9" fill="#303030"/>
<rect x="126" y="144" width="9" height="9" fill="#303030"/>
<rect x="135" y="135" width="9" height="9" fill="#303030"/>
<rect x="144" y="126" width="9" height="9" fill="#303030"/>
<rect x="153" y="117" width="9" height="9" fill="#303030"/>
<rect x="162" y="108" width="9" height="9" fill="#303030"/>
<rect x="171" y="99" width="9" height="9" fill="#303030"/>
<rect x="180" y="90" width="9" height="9" fill="#303030"/>
<rect x="189" y="81" width="9" height="9" fill="#303030"/>
<rect x="198" y="72" width="9" height="9" fill="#303030"/>
<rect x="207" y="63" width="9" height="9" fill="#303030"/>
<rect x="216" y="54" width="9" height="9" fill="#303030"/>
<rect x="225" y="45" width="9" height="9" fill="#303030"/>
<rect x="234" y="36" width="9" height="9" fill="#303030"/>
<rect x="243" y="27" width="9" height="9" fill="#303030"/>
<rect x="252" y="18" width="9" height="9" fill="#303030"/>
<rect x="261" y="9" width="9" height="9" fill="#303030"/>
<rect x="270" width="9" height="9" fill="#303030"/>
<rect x="126" y="162" width="9" height="9" fill="#303030"/>
<rect x="135" y="153" width="9" height="9" fill="#303030"/>
<rect x="144" y="144" width="9" height="9" fill="#303030"/>
<rect x="153" y="135" width="9" height="9" fill="#303030"/>
<rect x="162" y="126" width="9" height="9" fill="#303030"/>
<rect x="171" y="117" width="9" height="9" fill="#303030"/>
<rect x="180" y="108" width="9" height="9" fill="#303030"/>
<rect x="189" y="99" width="9" height="9" fill="#303030"/>
<rect x="198" y="90" width="9" height="9" fill="#303030"/>
<rect x="207" y="81" width="9" height="9" fill="#303030"/>
<rect x="216" y="72" width="9" height="9" fill="#303030"/>
<rect x="225" y="63" width="9" height="9" fill="#303030"/>
<rect x="234" y="54" width="9" height="9" fill="#303030"/>
<rect x="243" y="45" width="9" height="9" fill="#303030"/>
<rect x="252" y="36" width="9" height="9" fill="#303030"/>
<rect x="261" y="27" width="9" height="9" fill="#303030"/>
<rect x="270" y="18" width="9" height="9" fill="#303030"/>
<rect x="279" y="9" width="9" height="9" fill="#303030"/>
<rect x="288" width="9" height="9" fill="#303030"/>
<rect x="144" y="162" width="9" height="9" fill="#303030"/>
<rect x="153" y="153" width="9" height="9" fill="#303030"/>
<rect x="162" y="144" width="9" height="9" fill="#303030"/>
<rect x="171" y="135" width="9" height="9" fill="#303030"/>
<rect x="180" y="126" width="9" height="9" fill="#303030"/>
<rect x="189" y="117" width="9" height="9" fill="#303030"/>
<rect x="198" y="108" width="9" height="9" fill="#303030"/>
<rect x="207" y="99" width="9" height="9" fill="#303030"/>
<rect x="216" y="90" width="9" height="9" fill="#303030"/>
<rect x="225" y="81" width="9" height="9" fill="#303030"/>
<rect x="234" y="72" width="9" height="9" fill="#303030"/>
<rect x="243" y="63" width="9" height="9" fill="#303030"/>
<rect x="252" y="54" width="9" height="9" fill="#303030"/>
<rect x="261" y="45" width="9" height="9" fill="#303030"/>
<rect x="270" y="36" width="9" height="9" fill="#303030"/>
<rect x="279" y="27" width="9" height="9" fill="#303030"/>
<rect x="288" y="18" width="9" height="9" fill="#303030"/>
<rect x="297" y="9" width="9" height="9" fill="#303030"/>
<rect x="306" width="9" height="9" fill="#303030"/>
<rect x="162" y="162" width="9" height="9" fill="#303030"/>
<rect x="171" y="153" width="9" height="9" fill="#303030"/>
<rect x="180" y="144" width="9" height="9" fill="#303030"/>
<rect x="189" y="135" width="9" height="9" fill="#303030"/>
<rect x="198" y="126" width="9" height="9" fill="#303030"/>
<rect x="207" y="117" width="9" height="9" fill="#303030"/>
<rect x="216" y="108" width="9" height="9" fill="#303030"/>
<rect x="225" y="99" width="9" height="9" fill="#303030"/>
<rect x="234" y="90" width="9" height="9" fill="#303030"/>
<rect x="243" y="81" width="9" height="9" fill="#303030"/>
<rect x="252" y="72" width="9" height="9" fill="#303030"/>
<rect x="261" y="63" width="9" height="9" fill="#303030"/>
<rect x="270" y="54" width="9" height="9" fill="#303030"/>
<rect x="279" y="45" width="9" height="9" fill="#303030"/>
<rect x="288" y="36" width="9" height="9" fill="#303030"/>
<rect x="297" y="27" width="9" height="9" fill="#303030"/>
<rect x="306" y="18" width="9" height="9" fill="#303030"/>
<rect x="315" y="9" width="9" height="9" fill="#303030"/>
<rect x="324" width="9" height="9" fill="#303030"/>
<rect x="180" y="162" width="9" height="9" fill="#303030"/>
<rect x="189" y="153" width="9" height="9" fill="#303030"/>
<rect x="198" y="144" width="9" height="9" fill="#303030"/>
<rect x="207" y="135" width="9" height="9" fill="#303030"/>
<rect x="216" y="126" width="9" height="9" fill="#303030"/>
<rect x="225" y="117" width="9" height="9" fill="#303030"/>
<rect x="234" y="108" width="9" height="9" fill="#303030"/>
<rect x="243" y="99" width="9" height="9" fill="#303030"/>
<rect x="252" y="90" width="9" height="9" fill="#303030"/>
<rect x="261" y="81" width="9" height="9" fill="#303030"/>
<rect x="270" y="72" width="9" height="9" fill="#303030"/>
<rect x="279" y="63" width="9" height="9" fill="#303030"/>
<rect x="288" y="54" width="9" height="9" fill="#303030"/>
<rect x="297" y="45" width="9" height="9" fill="#303030"/>
<rect x="306" y="36" width="9" height="9" fill="#303030"/>
<rect x="315" y="27" width="9" height="9" fill="#303030"/>
<rect x="324" y="18" width="9" height="9" fill="#303030"/>
<rect x="333" y="9" width="9" height="9" fill="#303030"/>
<rect x="342" width="9" height="9" fill="#303030"/>
<rect x="198" y="162" width="9" height="9" fill="#303030"/>
<rect x="207" y="153" width="9" height="9" fill="#303030"/>
<rect x="216" y="144" width="9" height="9" fill="#303030"/>
<rect x="225" y="135" width="9" height="9" fill="#303030"/>
<rect x="234" y="126" width="9" height="9" fill="#303030"/>
<rect x="243" y="117" width="9" height="9" fill="#303030"/>
<rect x="252" y="108" width="9" height="9" fill="#303030"/>
<rect x="261" y="99" width="9" height="9" fill="#303030"/>
<rect x="270" y="90" width="9" height="9" fill="#303030"/>
<rect x="279" y="81" width="9" height="9" fill="#303030"/>
<rect x="288" y="72" width="9" height="9" fill="#303030"/>
<rect x="297" y="63" width="9" height="9" fill="#303030"/>
<rect x="306" y="54" width="9" height="9" fill="#303030"/>
<rect x="315" y="45" width="9" height="9" fill="#303030"/>
<rect x="324" y="36" width="9" height="9" fill="#303030"/>
<rect x="333" y="27" width="9" height="9" fill="#303030"/>
<rect x="342" y="18" width="9" height="9" fill="#303030"/>
<rect x="216" y="162" width="9" height="9" fill="#303030"/>
<rect x="225" y="153" width="9" height="9" fill="#303030"/>
<rect x="234" y="144" width="9" height="9" fill="#303030"/>
<rect x="243" y="135" width="9" height="9" fill="#303030"/>
<rect x="252" y="126" width="9" height="9" fill="#303030"/>
<rect x="261" y="117" width="9" height="9" fill="#303030"/>
<rect x="270" y="108" width="9" height="9" fill="#303030"/>
<rect x="279" y="99" width="9" height="9" fill="#303030"/>
<rect x="288" y="90" width="9" height="9" fill="#303030"/>
<rect x="297" y="81" width="9" height="9" fill="#303030"/>
<rect x="306" y="72" width="9" height="9" fill="#303030"/>
<rect x="315" y="63" width="9" height="9" fill="#303030"/>
<rect x="324" y="54" width="9" height="9" fill="#303030"/>
<rect x="333" y="45" width="9" height="9" fill="#303030"/>
<rect x="342" y="36" width="9" height="9" fill="#303030"/>
<rect x="234" y="162" width="9" height="9" fill="#303030"/>
<rect x="243" y="153" width="9" height="9" fill="#303030"/>
<rect x="252" y="144" width="9" height="9" fill="#303030"/>
<rect x="261" y="135" width="9" height="9" fill="#303030"/>
<rect x="270" y="126" width="9" height="9" fill="#303030"/>
<rect x="279" y="117" width="9" height="9" fill="#303030"/>
<rect x="288" y="108" width="9" height="9" fill="#303030"/>
<rect x="297" y="99" width="9" height="9" fill="#303030"/>
<rect x="306" y="90" width="9" height="9" fill="#303030"/>
<rect x="315" y="81" width="9" height="9" fill="#303030"/>
<rect x="324" y="72" width="9" height="9" fill="#303030"/>
<rect x="333" y="63" width="9" height="9" fill="#303030"/>
<rect x="342" y="54" width="9" height="9" fill="#303030"/>
<rect x="252" y="162" width="9" height="9" fill="#303030"/>
<rect x="261" y="153" width="9" height="9" fill="#303030"/>
<rect x="270" y="144" width="9" height="9" fill="#303030"/>
<rect x="279" y="135" width="9" height="9" fill="#303030"/>
<rect x="288" y="126" width="9" height="9" fill="#303030"/>
<rect x="297" y="117" width="9" height="9" fill="#303030"/>
<rect x="306" y="108" width="9" height="9" fill="#303030"/>
<rect x="315" y="99" width="9" height="9" fill="#303030"/>
<rect x="324" y="90" width="9" height="9" fill="#303030"/>
<rect x="333" y="81" width="9" height="9" fill="#303030"/>
<rect x="342" y="72" width="9" height="9" fill="#303030"/>
<rect x="270" y="162" width="9" height="9" fill="#303030"/>
<rect x="279" y="153" width="9" height="9" fill="#303030"/>
<rect x="288" y="144" width="9" height="9" fill="#303030"/>
<rect x="297" y="135" width="9" height="9" fill="#303030"/>
<rect x="306" y="126" width="9" height="9" fill="#303030"/>
<rect x="315" y="117" width="9" height="9" fill="#303030"/>
<rect x="324" y="108" width="9" height="9" fill="#303030"/>
<rect x="333" y="99" width="9" height="9" fill="#303030"/>
<rect x="342" y="90" width="9" height="9" fill="#303030"/>
<rect x="288" y="162" width="9" height="9" fill="#303030"/>
<rect x="297" y="153" width="9" height="9" fill="#303030"/>
<rect x="306" y="144" width="9" height="9" fill="#303030"/>
<rect x="315" y="135" width="9" height="9" fill="#303030"/>
<rect x="324" y="126" width="9" height="9" fill="#303030"/>
<rect x="333" y="117" width="9" height="9" fill="#303030"/>
<rect x="342" y="108" width="9" height="9" fill="#303030"/>
<rect x="306" y="162" width="9" height="9" fill="#303030"/>
<rect x="315" y="153" width="9" height="9" fill="#303030"/>
<rect x="324" y="144" width="9" height="9" fill="#303030"/>
<rect x="333" y="135" width="9" height="9" fill="#303030"/>
<rect x="342" y="126" width="9" height="9" fill="#303030"/>
<rect x="324" y="162" width="9" height="9" fill="#303030"/>
<rect x="333" y="153" width="9" height="9" fill="#303030"/>
<rect x="342" y="144" width="9" height="9" fill="#303030"/>
<rect x="342" y="162" width="9" height="9" fill="#303030"/>
</svg>
